<?xml version="1.0" encoding="utf-8"?>
<!-- Generator: Adobe Illustrator 27.2.0, SVG Export Plug-In . SVG Version: 6.00 Build 0)  -->
<svg version="1.1" id="Layer_1" xmlns="http://www.w3.org/2000/svg" xmlns:xlink="http://www.w3.org/1999/xlink" x="0px" y="0px"
	 viewBox="0 0 143.6 198.2" style="enable-background:new 0 0 143.6 198.2;" xml:space="preserve">
<style type="text/css">
	.st0{fill:#2A2B6D;}
	.st1{fill:#FFFFFF;}
	.st2{fill:#E92831;}
</style>
<g>
	<path class="st0" d="M30.2,36.8l12-12c0,0,7.2,3,16.2,1.9s14.4-7.2,14.4-7.2s5.1,6.2,13.5,7.3s16.5-1.9,16.5-1.9l12,11.9
		c0,0-5.3,8.7-4,18c-21.9,0.4-39,0.1-76.5,0C33.9,45.5,34.4,44.4,30.2,36.8z"/>
	<g>
		<g>
			<path class="st1" d="M96.3,34.9l-0.5-3.1c-0.2-1-0.6-1.8-0.9-1.8c-0.3,0-0.6,0.8-0.6,1.8v0.8c0,1-0.8,1.8-1.8,1.8h-0.8
				c-0.1,0-0.1,0-0.2,0v2.2c0.1,0,0.1,0,0.2,0h3.1C95.8,36.7,96.4,35.9,96.3,34.9"/>
			<path class="st1" d="M89,32.3h-4.9c0,0-0.1,0-0.1,0h-5.1c-0.1,0-0.1,0-0.2,0v-0.5c0-1-0.2-1.8-0.6-1.8c-0.3,0-0.7,0.8-0.9,1.8
				l-0.5,3.1c-0.2,1,0.5,1.8,1.5,1.8h3c0.3,0,0.6,0,0.9-0.1c-0.1,0.5-0.5,0.9-1.1,0.9h-4.3c-0.7,0-1.2-0.6-1.1-1.3l0.4-2.6
				c0.1-0.7-0.4-1.3-1.1-1.3H53.8c-0.5,0-0.8,0.3-1,0.7l-4,6.1c-0.1,0.1-0.1,0.2,0,0.3l0.8,0.9c0.1,0.1,0.3,0.1,0.4,0l2.7-2.1v13
				c0,0.6,0.5,1.1,1.1,1.1h6c0.6,0,1.1-0.5,1.1-1.1v-4.5c0-0.6,0.5-1.1,1.1-1.1h15c0.6,0,1.1,0.5,1.1,1.1v4.5c0,0.6,0.5,1.1,1.1,1.1
				h6c0.6,0,1.1-0.5,1.1-1.1v-4.9h-3.2c-1,0-1.8-0.8-1.8-1.8v-3.1c0-0.6,0.3-1.1,0.7-1.5v3.7c0,1,0.8,1.8,1.8,1.8H89
				c1,0,1.8-0.8,1.8-1.8v-9.5C90.8,33.1,90,32.3,89,32.3"/>
		</g>
		<g>
			<path class="st1" d="M96.6,31.2c0-0.8,0.6-1.2,1.2-1.2s1.2,0.4,1.2,1.2c0,0.8-0.6,1.1-1.2,1.1S96.6,32,96.6,31.2z M98.7,31.2
				c0-0.6-0.4-0.9-0.9-0.9c-0.5,0-0.9,0.3-0.9,0.9c0,0.6,0.4,0.9,0.9,0.9C98.2,32.1,98.7,31.8,98.7,31.2z M97.4,30.6h0.4
				c0.2,0,0.4,0.1,0.4,0.4c0,0.2-0.1,0.3-0.3,0.3l0.3,0.5H98l-0.2-0.5h-0.1v0.5h-0.2V30.6L97.4,30.6z M97.8,31.1
				c0.1,0,0.2-0.1,0.2-0.2c0-0.1-0.1-0.1-0.2-0.1h-0.2v0.3H97.8z"/>
		</g>
	</g>
	<polyline class="st1" points="60,114.7 60,54.8 66.7,54.9 66.7,117.6 60,114.7 	"/>
	<polyline class="st1" points="78.2,117.6 78.2,55 85,55 85,114.7 78.2,117.6 	"/>
	<path class="st1" d="M96.3,109.2V55l7.2-0.1l0,47.7C103.5,102.6,99.7,106.8,96.3,109.2"/>
	<path class="st1" d="M41.4,102.6V54.8l7.4,0.1v54.7C48.8,109.6,42.1,103.8,41.4,102.6"/>
	<path class="st2" d="M103.5,54.9l7.3-0.1c0,0,10.2,31.1-7.3,47.8C103.1,80.5,103.4,75.4,103.5,54.9z"/>
	<path class="st2" d="M85,114.7V55h11.3v54.2C96.3,109.2,92.3,112,85,114.7z"/>
	<polygon class="st2" points="66.7,117.6 66.7,54.9 78.2,55 78.2,117.6 72.5,120.2 	"/>
	<path class="st2" d="M48.8,109.6V54.8H60v59.9C60,114.7,57.1,114.1,48.8,109.6z"/>
	<path class="st2" d="M34.2,54.8h7.2v47.8C41.4,102.6,23.3,87.6,34.2,54.8z"/>
</g>
<g>
	<path d="M20,149.1v-16.8h6.9c3.4,0,5.5,1.7,5.5,4.7c0,2.3-1.5,3.9-3.4,4.5c0.4,0.4,0.8,0.9,1.2,1.6c0.1,0.3,0.5,1.1,0.7,1.4
		c0.1,0.1,0.2,0.3,0.3,0.6c0.4,0.7,0.8,0.9,1.6,1l0.7-0.1l-0.3,3c-0.6,0.1-1.1,0.2-1.7,0.2c-2,0-3.1-0.8-4.3-3.4
		c-0.1-0.2-0.3-0.9-0.5-1.2c-0.1-0.3-0.4-0.9-0.6-1.2c-0.3-0.5-0.7-0.9-1.1-0.9h-0.9v6.6H20z M24.2,135.3v4.1h1.5
		c1.7,0,2.6-0.7,2.6-2.2c0-1.3-0.7-2-2.1-2H24.2z"/>
	<path d="M33.8,149.1l5.6-16.8h4.2l5.7,16.8h-4.2l-1-3.2h-5.6l-1,3.2H33.8z M39.4,142.8H43l-1.1-3.5c-0.2-0.7-0.4-1.8-0.5-2.4l0-0.4
		h-0.1c-0.2,1.1-0.4,2.1-0.6,2.9L39.4,142.8z"/>
	<path d="M50.8,149.1v-16.8h4.4l4.4,8.3c0.2,0.4,0.6,1.4,1.3,3H61c0-0.7-0.2-2.6-0.2-3.3v-8h3.4v16.8h-4.3l-4.6-8.3
		c-0.3-0.6-0.7-1.5-1.2-2.7H54c0.1,1.7,0.2,2.7,0.2,3v8H50.8z"/>
	<path d="M66.5,140.6c0-5.9,2.8-8.6,7.6-8.6c4.7,0,6.9,2.5,6.3,6.3l-3.9,0.3c0.4-2.5-0.4-3.7-2.5-3.7c-2.2,0-3.3,1.9-3.3,5.7
		c0,3.8,1.1,5.7,3.4,5.7c1.8,0,3.1-1.2,2.8-3.3l3.6,0.4c0.1,1.7-0.4,3.2-1.6,4.2c-1.2,1.1-2.9,1.7-5.1,1.7
		C69.3,149.4,66.5,146.5,66.5,140.6z"/>
	<path d="M82.8,149.1v-16.8H87v6.3h5.1v-6.3h4.1v16.8h-4.1V142H87v7.1H82.8z"/>
	<path d="M99.2,149.1v-16.8h11.1v3.1h-7v3.6h5.8v3.1h-5.8v3.9h7.2v3.1H99.2z"/>
	<path d="M112.7,149.1v-16.8h6.9c3.4,0,5.5,1.7,5.5,4.7c0,2.3-1.5,3.9-3.4,4.5c0.4,0.4,0.8,0.9,1.2,1.6c0.1,0.3,0.5,1.1,0.7,1.4
		c0.1,0.1,0.2,0.3,0.3,0.6c0.4,0.7,0.8,0.9,1.6,1l0.7-0.1l-0.3,3c-0.6,0.1-1.1,0.2-1.7,0.2c-2,0-3.1-0.8-4.3-3.4
		c-0.1-0.2-0.3-0.9-0.5-1.2c-0.1-0.3-0.4-0.9-0.6-1.2c-0.3-0.5-0.7-0.9-1.1-0.9h-0.9v6.6H112.7z M116.9,135.3v4.1h1.5
		c1.7,0,2.6-0.7,2.6-2.2c0-1.3-0.7-2-2.1-2H116.9z"/>
</g>
<g>
	<path d="M23.8,161.8v-1.7h3.6v4.7H26v-1.6c-0.4,1.2-1.2,1.7-2.5,1.7c-2.2,0-3.6-1.6-3.6-4.9c0-3.3,1.4-4.8,4-4.8
		c1.3,0,2.2,0.3,2.8,1c0.6,0.6,0.8,1.4,0.6,2.3l-2.1,0.2c0.2-1.2-0.4-1.9-1.3-1.9c-1.2,0-1.8,1.1-1.8,3.2c0,2.3,0.6,3.1,1.8,3.1
		c0.9,0,1.5-0.6,1.6-1.3v-0.3H23.8z"/>
	<path d="M31,160.1c0-3.2,1.5-4.7,4.1-4.7c2.5,0,4,1.5,4,4.7c0,3.3-1.3,4.9-4,4.9C32.5,165,31,163.5,31,160.1z M36.8,160.1
		c0-2.1-0.7-3.1-1.8-3.1c-1,0-1.8,0.9-1.8,3.1c0,2.2,0.6,3.3,1.8,3.3C36.1,163.4,36.8,162.5,36.8,160.1z"/>
	<path d="M44.9,164.9l-3-9.3h2.3l1.7,5.2c0.1,0.4,0.2,1.1,0.3,1.4l0,0.3h0.1c0.1-0.7,0.2-1.2,0.3-1.7l1.6-5.3h2l-3,9.3H44.9z"/>
	<path d="M53.5,164.9v-9.3h5.9v1.7h-3.7v2h3.1v1.7h-3.1v2.2h3.8v1.7H53.5z"/>
	<path d="M63.2,164.9v-9.3h3.6c1.8,0,2.9,0.9,2.9,2.6c0,1.3-0.8,2.2-1.8,2.5c0.2,0.2,0.4,0.5,0.6,0.9c0.1,0.2,0.3,0.6,0.4,0.8
		c0,0.1,0.1,0.2,0.2,0.3c0.2,0.4,0.4,0.5,0.8,0.5l0.4-0.1l-0.2,1.6c-0.3,0.1-0.6,0.1-0.9,0.1c-1.1,0-1.7-0.5-2.3-1.9
		c-0.1-0.1-0.2-0.5-0.2-0.7c-0.1-0.2-0.2-0.5-0.3-0.7c-0.2-0.3-0.4-0.5-0.6-0.5h-0.5v3.7H63.2z M65.4,157.2v2.3h0.8
		c0.9,0,1.4-0.4,1.4-1.2c0-0.7-0.4-1.1-1.1-1.1H65.4z"/>
	<path d="M73.9,164.9v-9.3h2.3l2.3,4.6c0.1,0.2,0.3,0.8,0.7,1.7h0.1c0-0.4-0.1-1.4-0.1-1.8v-4.5H81v9.3h-2.3l-2.4-4.6
		c-0.2-0.3-0.4-0.8-0.6-1.5h-0.1c0.1,0.9,0.1,1.5,0.1,1.7v4.5H73.9z"/>
	<path d="M85.2,164.9v-9.3H88l1.4,4.1l0.4,1.3h0.1c0.1-0.5,0.2-0.9,0.4-1.3l1.4-4.1h2.6v9.3h-2v-4.7l0.1-1.8h-0.1
		c-0.2,0.9-0.3,1.5-0.4,1.8l-1.7,4.8h-1l-1.7-4.8c-0.1-0.3-0.3-1-0.3-1.4l-0.1-0.3h-0.1c0.1,0.8,0.1,1.4,0.1,1.8v4.7H85.2z"/>
	<path d="M98.4,164.9v-9.3h5.9v1.7h-3.7v2h3.1v1.7h-3.1v2.2h3.8v1.7H98.4z"/>
	<path d="M108.2,164.9v-9.3h2.3l2.3,4.6c0.1,0.2,0.3,0.8,0.7,1.7h0.1c0-0.4-0.1-1.4-0.1-1.8v-4.5h1.8v9.3H113l-2.4-4.6
		c-0.2-0.3-0.4-0.8-0.6-1.5h-0.1c0.1,0.9,0.1,1.5,0.1,1.7v4.5H108.2z"/>
	<path d="M118.9,157.3v-1.7h7.1v1.7h-2.5v7.6h-2.2v-7.6H118.9z"/>
</g>
<g>
	<path d="M33.4,169.7v2.8h-6.2c-3.1,0-4.4,1.5-4.4,5.2c0,3.6,1.3,5.2,4.4,5.2h6.2v2.8h-6.2c-4.7,0-7.2-2.6-7.2-8c0-5.4,2.6-8,7.2-8
		H33.4z"/>
	<path class="st2" d="M38.3,185.6h-3.1l5.6-14.2c0.6-1.5,1.7-2.1,3.4-2.1c1.7,0,2.7,0.6,3.3,2.1l5.4,14.2h-3.1l-4.9-12.9
		c-0.1-0.4-0.4-0.5-0.8-0.5s-0.6,0.2-0.8,0.5L38.3,185.6z"/>
	<path d="M63.9,169.7c3.6,0,5.1,2.2,5.1,4.8c0,2-0.9,4.1-3.4,4.8l3.7,6.4h-3.1l-3.6-6.2h-4.2c-0.3,0-0.4,0.1-0.4,0.4v5.8h-2.8v-6.3
		c0-1.8,0.8-2.5,2.5-2.5H64c1.6,0,2.2-1.1,2.2-2.2s-0.7-2.1-2.2-2.1h-8.8v-2.8H63.9z"/>
	<path d="M80.5,169.7c3.8,0,5.4,1.8,5.4,4.4c0,1.8-0.8,3-2.3,3.6c1.5,0.6,2.4,1.8,2.4,3.6c0,2.6-1.6,4.4-5.4,4.4h-7.1
		c-0.9,0-1.3-0.4-1.3-1.3V171c0-0.9,0.4-1.3,1.3-1.3H80.5z M74.9,176.4h5.7c1.7,0,2.5-0.6,2.5-1.9c0-1.3-0.7-2.1-2.4-2.1h-5.4
		c-0.2,0-0.3,0.1-0.3,0.3V176.4z M74.9,182.6c0,0.2,0.1,0.3,0.3,0.3h5.4c1.7,0,2.5-0.8,2.5-2.1c0-1.3-0.8-2.1-2.5-2.1h-5.8V182.6z"
		/>
	<path d="M92,169.7v16h-2.8v-16H92z"/>
	<path d="M102.8,169.7c4.7,0,7.2,2.6,7.2,8c0,5.4-2.5,8-7.2,8h-5.6c-0.9,0-1.3-0.4-1.3-1.3V171c0-0.9,0.4-1.3,1.3-1.3H102.8z
		 M98.7,182.6c0,0.2,0.1,0.3,0.3,0.3h3.9c3.1,0,4.4-1.5,4.4-5.2c0-3.6-1.3-5.2-4.4-5.2H99c-0.2,0-0.3,0.1-0.3,0.3V182.6z"/>
	<path d="M126.1,169.7v2.8h-8c-1.7,0-2.4,0.8-2.4,2c0,1.3,0.8,1.9,2.4,1.9h7.9v2.5H118c-1.6,0-2.4,0.6-2.4,1.9c0,1.3,0.8,2,2.4,2
		h8.1v2.8H118c-3.8,0-5.3-1.9-5.3-4.4c0-1.8,0.8-3.1,2.3-3.7c-1.5-0.6-2.2-1.8-2.2-3.6c0-2.6,1.6-4.4,5.4-4.4H126.1z"/>
</g>
</svg>
