<?xml version="1.0" encoding="utf-8"?>
<!-- Generator: Adobe Illustrator 28.0.0, SVG Export Plug-In . SVG Version: 6.00 Build 0)  -->
<svg version="1.1" id="Layer_1" xmlns="http://www.w3.org/2000/svg" xmlns:xlink="http://www.w3.org/1999/xlink" x="0px" y="0px"
	 viewBox="0 0 800 800" style="enable-background:new 0 0 800 800;" xml:space="preserve">
<style type="text/css">
	.st0{fill:#192072;}
</style>
<path class="st0" d="M438.7,105.7c162.6-0.2,294.5,131.4,294.7,294S602,694.1,439.4,694.3C339.5,694.5,246.3,643.9,192,560l46.7-37
	c68.2,110.4,213.1,144.6,323.5,76.3s144.6-213.1,76.3-323.5S425.4,131.3,315,199.5C254.4,237,214,299.9,205.3,370.6h81.3l-110,109.7
	l-110-109.7H146C161.1,220.3,287.5,105.8,438.7,105.7 M524.3,346c14.9,0,27,12.1,27,27v130c0,15.1-12.2,27.3-27.3,27.3H366.7
	c-14.4-0.7-25.6-12.9-25-27.3V366.7c-0.4-14.2,10.5-26.1,24.7-27v-24.3c0-44,35.6-79.7,79.6-79.7c3.6,0,7.2,0.2,10.7,0.7
	c40.7,6.2,70.6,41.5,70,82.7v27 M489.7,318c0.5-16.1-8.5-31-23-38c-21.3-10.5-47.1-1.8-57.6,19.5c-2.6,5.3-4.1,11-4.4,16.8V346h85.7
	L489.7,318z"/>
</svg>
