<?xml version="1.0" encoding="UTF-8" standalone="no" ?>
<!DOCTYPE svg PUBLIC "-//W3C//DTD SVG 1.1//EN" "http://www.w3.org/Graphics/SVG/1.1/DTD/svg11.dtd">
<svg xmlns="http://www.w3.org/2000/svg" xmlns:xlink="http://www.w3.org/1999/xlink" version="1.1" width="1080" height="1080" viewBox="0 0 1080 1080" xml:space="preserve">
<desc>Created with Fabric.js 5.2.4</desc>
<defs>
</defs>
<g transform="matrix(1 0 0 1 540 540)" id="ea1f4e74-c70e-4056-b4c4-81080e2ecdf9"  >
<rect style="stroke: none; stroke-width: 1; stroke-dasharray: none; stroke-linecap: butt; stroke-dashoffset: 0; stroke-linejoin: miter; stroke-miterlimit: 4; fill: rgb(255,255,255); fill-rule: nonzero; opacity: 1; visibility: hidden;" vector-effect="non-scaling-stroke"  x="-540" y="-540" rx="0" ry="0" width="1080" height="1080" />
</g>
<g transform="matrix(1 0 0 1 540 540)" id="f34778f3-0828-4fb1-949a-158403b10ad2"  >
</g>
<g transform="matrix(1 0 0 1 540 540)"  >
<g style="" vector-effect="non-scaling-stroke"   >
		<g transform="matrix(1 0 0 1 0 0)"  >
<rect style="stroke: none; stroke-width: 1; stroke-dasharray: none; stroke-linecap: butt; stroke-dashoffset: 0; stroke-linejoin: miter; stroke-miterlimit: 4; fill: none; fill-rule: nonzero; opacity: 1;" vector-effect="non-scaling-stroke"  x="-400" y="-400" rx="0" ry="0" width="800" height="800" />
</g>
		<g transform="matrix(1 0 0 1 -286.65 8.35)"  >
<polygon style="stroke: none; stroke-width: 1; stroke-dasharray: none; stroke-linecap: butt; stroke-dashoffset: 0; stroke-linejoin: miter; stroke-miterlimit: 4; fill: rgb(169,167,171); fill-rule: evenodd; opacity: 1;" vector-effect="non-scaling-stroke"  points="86.65,-328.35 -86.65,-228.35 -86.65,228.35 86.65,328.35 86.65,241.65 -13.35,184.95 -13.35,-185.05 86.65,-241.65 " />
</g>
		<g transform="matrix(1 0 0 1 -336.65 8.3)"  >
<polygon style="stroke: none; stroke-width: 1; stroke-dasharray: none; stroke-linecap: butt; stroke-dashoffset: 0; stroke-linejoin: miter; stroke-miterlimit: 4; fill: rgb(71,84,104); fill-rule: evenodd; opacity: 1;" vector-effect="non-scaling-stroke"  points="-36.65,-141.6 -36.65,141.7 36.65,185 36.65,-185 " />
</g>
		<g transform="matrix(1 0 0 1 -336.65 -155)"  >
<polygon style="stroke: none; stroke-width: 1; stroke-dasharray: none; stroke-linecap: butt; stroke-dashoffset: 0; stroke-linejoin: miter; stroke-miterlimit: 4; fill: rgb(71,84,104); fill-rule: evenodd; opacity: 1;" vector-effect="non-scaling-stroke"  points="-36.65,21.7 36.65,5 36.65,-21.7 " />
</g>
		<g transform="matrix(1 0 0 1 286.65 8.35)"  >
<polygon style="stroke: none; stroke-width: 1; stroke-dasharray: none; stroke-linecap: butt; stroke-dashoffset: 0; stroke-linejoin: miter; stroke-miterlimit: 4; fill: rgb(169,167,171); fill-rule: evenodd; opacity: 1;" vector-effect="non-scaling-stroke"  points="-86.65,-328.35 -86.65,-241.65 13.35,-185.05 13.35,184.95 -86.65,241.65 -86.65,328.35 86.65,228.35 86.65,-228.35 " />
</g>
		<g transform="matrix(1 0 0 1 336.65 8.3)"  >
<polygon style="stroke: none; stroke-width: 1; stroke-dasharray: none; stroke-linecap: butt; stroke-dashoffset: 0; stroke-linejoin: miter; stroke-miterlimit: 4; fill: rgb(71,84,104); fill-rule: evenodd; opacity: 1;" vector-effect="non-scaling-stroke"  points="-36.65,185 36.65,141.7 36.65,-141.6 -36.65,-185 " />
</g>
		<g transform="matrix(1 0 0 1 336.65 -155)"  >
<polygon style="stroke: none; stroke-width: 1; stroke-dasharray: none; stroke-linecap: butt; stroke-dashoffset: 0; stroke-linejoin: miter; stroke-miterlimit: 4; fill: rgb(71,84,104); fill-rule: evenodd; opacity: 1;" vector-effect="non-scaling-stroke"  points="-36.65,5 36.65,21.7 -36.65,-21.7 " />
</g>
		<g transform="matrix(1 0 0 1 336.65 171.65)"  >
<polygon style="stroke: none; stroke-width: 1; stroke-dasharray: none; stroke-linecap: butt; stroke-dashoffset: 0; stroke-linejoin: miter; stroke-miterlimit: 4; fill: rgb(71,84,104); fill-rule: evenodd; opacity: 1;" vector-effect="non-scaling-stroke"  points="-36.65,-1.65 -36.65,21.65 36.65,-21.65 " />
</g>
		<g transform="matrix(1 0 0 1 0 -163.35)"  >
<polygon style="stroke: none; stroke-width: 1; stroke-dasharray: none; stroke-linecap: butt; stroke-dashoffset: 0; stroke-linejoin: miter; stroke-miterlimit: 4; fill: rgb(169,167,171); fill-rule: evenodd; opacity: 1;" vector-effect="non-scaling-stroke"  points="0,-53.35 -100,0.05 0,53.35 100,0.05 " />
</g>
		<g transform="matrix(1 0 0 1 61.65 -65)"  >
<polygon style="stroke: none; stroke-width: 1; stroke-dasharray: none; stroke-linecap: butt; stroke-dashoffset: 0; stroke-linejoin: miter; stroke-miterlimit: 4; fill: rgb(71,84,104); fill-rule: evenodd; opacity: 1;" vector-effect="non-scaling-stroke"  points="-48.35,78.3 48.35,25 48.35,-78.3 -48.35,-25 " />
</g>
		<g transform="matrix(1 0 0 1 -60 -65)"  >
<polygon style="stroke: none; stroke-width: 1; stroke-dasharray: none; stroke-linecap: butt; stroke-dashoffset: 0; stroke-linejoin: miter; stroke-miterlimit: 4; fill: rgb(71,84,104); fill-rule: evenodd; opacity: 1;" vector-effect="non-scaling-stroke"  points="50,-25 -50,-78.3 -50,25 50,78.3 " />
</g>
		<g transform="matrix(1 0 0 1 -116.34 32.53)"  >
<polygon style="stroke: none; stroke-width: 1; stroke-dasharray: none; stroke-linecap: butt; stroke-dashoffset: 0; stroke-linejoin: miter; stroke-miterlimit: 4; fill: rgb(169,167,171); fill-rule: evenodd; opacity: 1;" vector-effect="non-scaling-stroke"  points="1.7,-53.35 -95,0.05 1.7,53.35 95,0.05 " />
</g>
		<g transform="matrix(1 0 0 1 -59.69 129.18)"  >
<polygon style="stroke: none; stroke-width: 1; stroke-dasharray: none; stroke-linecap: butt; stroke-dashoffset: 0; stroke-linejoin: miter; stroke-miterlimit: 4; fill: rgb(71,84,104); fill-rule: evenodd; opacity: 1;" vector-effect="non-scaling-stroke"  points="-48.35,80 48.35,26.7 48.35,-80 -48.35,-26.6 " />
</g>
		<g transform="matrix(1 0 0 1 -172.99 129.18)"  >
<polygon style="stroke: none; stroke-width: 1; stroke-dasharray: none; stroke-linecap: butt; stroke-dashoffset: 0; stroke-linejoin: miter; stroke-miterlimit: 4; fill: rgb(71,84,104); fill-rule: evenodd; opacity: 1;" vector-effect="non-scaling-stroke"  points="48.35,-26.6 -48.35,-80 -48.35,26.7 48.35,80 " />
</g>
		<g transform="matrix(1 0 0 1 117.32 32.53)"  >
<polygon style="stroke: none; stroke-width: 1; stroke-dasharray: none; stroke-linecap: butt; stroke-dashoffset: 0; stroke-linejoin: miter; stroke-miterlimit: 4; fill: rgb(169,167,171); fill-rule: evenodd; opacity: 1;" vector-effect="non-scaling-stroke"  points="0,-53.35 -96.7,0.05 0,53.35 96.7,0.05 " />
</g>
		<g transform="matrix(1 0 0 1 175.67 129.18)"  >
<polygon style="stroke: none; stroke-width: 1; stroke-dasharray: none; stroke-linecap: butt; stroke-dashoffset: 0; stroke-linejoin: miter; stroke-miterlimit: 4; fill: rgb(71,84,104); fill-rule: evenodd; opacity: 1;" vector-effect="non-scaling-stroke"  points="-48.35,80 48.35,26.7 48.35,-80 -48.35,-26.6 " />
</g>
		<g transform="matrix(1 0 0 1 58.97 129.18)"  >
<polygon style="stroke: none; stroke-width: 1; stroke-dasharray: none; stroke-linecap: butt; stroke-dashoffset: 0; stroke-linejoin: miter; stroke-miterlimit: 4; fill: rgb(71,84,104); fill-rule: evenodd; opacity: 1;" vector-effect="non-scaling-stroke"  points="48.35,-26.6 -48.35,-80 -48.35,26.7 48.35,80 " />
</g>
</g>
</g>
</svg>