<?xml version="1.0" encoding="utf-8"?>
<!-- Generator: Adobe Illustrator 27.2.0, SVG Export Plug-In . SVG Version: 6.00 Build 0)  -->
<svg version="1.1" xmlns="http://www.w3.org/2000/svg" xmlns:xlink="http://www.w3.org/1999/xlink" x="0px" y="0px"
	 viewBox="0 0 288 288" style="enable-background:new 0 0 288 288;" xml:space="preserve">
<style type="text/css">
	.st0{fill:#2A2B6D;}
	.st1{fill:#FFFFFF;}
	.st2{fill:#E92831;}
</style>
<g id="Layer_1">
	<path class="st0" d="M54.3,79.9l27.9-27.9c0,0,16.6,7,37.4,4.5S152.9,40,152.9,40s11.8,14.4,31.2,16.9c19.4,2.5,38.3-4.5,38.3-4.5
		l27.9,27.6c0,0-12.4,20.3-9.3,41.7c-50.7,0.9-90.4,0.3-177.4,0C62.8,100.2,64,97.5,54.3,79.9z"/>
	<g>
		<g>
			<path class="st1" d="M207.4,75.6l-1.2-7.2c-0.4-2.3-1.3-4.2-2-4.2c-0.7,0-1.3,1.9-1.3,4.2v1.9c0,2.3-1.9,4.2-4.2,4.2h-1.9
				c-0.1,0-0.3,0-0.4,0v5.2c0.1,0,0.3,0,0.4,0h7.1C206.2,79.8,207.8,77.9,207.4,75.6"/>
			<path class="st1" d="M190.5,69.5h-11.4c-0.1,0-0.2,0-0.3,0h-11.8c-0.1,0-0.3,0-0.4,0v-1.1c0-2.3-0.6-4.2-1.3-4.2s-1.6,1.9-2,4.2
				l-1.2,7.2c-0.4,2.3,1.2,4.2,3.6,4.2h7c0.7,0,1.4-0.1,2-0.3c-0.2,1.2-1.3,2.1-2.6,2.1h-9.9c-1.6,0-2.8-1.4-2.6-3l1-6
				c0.2-1.6-1-3-2.6-3h-49.2c-1.1,0-1.9,0.6-2.4,1.5l-9.2,14.1c-0.1,0.2-0.1,0.5,0,0.8l1.8,2.1c0.2,0.3,0.6,0.3,0.9,0.1l6.3-5v30.2
				c0,1.4,1.2,2.6,2.6,2.6h14c1.4,0,2.6-1.2,2.6-2.6v-10.5c0-1.4,1.2-2.6,2.6-2.6h34.9c1.4,0,2.6,1.2,2.6,2.6v10.5
				c0,1.4,1.2,2.6,2.6,2.6h14c1.4,0,2.6-1.2,2.6-2.6v-11.3h-7.4c-2.3,0-4.2-1.9-4.2-4.2v-7.3c0-1.4,0.7-2.6,1.7-3.4v8.7
				c0,2.3,1.9,4.2,4.2,4.2h11.4c2.3,0,4.2-1.9,4.2-4.2V73.8C194.7,71.4,192.9,69.5,190.5,69.5"/>
		</g>
		<g>
			<path class="st1" d="M208.2,66.9c0-1.9,1.4-2.7,2.7-2.7s2.7,0.8,2.7,2.7c0,1.8-1.4,2.6-2.7,2.6S208.2,68.8,208.2,66.9z M213,66.9
				c0-1.5-1-2.1-2-2.1c-1.1,0-2.1,0.6-2.1,2.1c0,1.4,1,2.1,2.1,2.1C212,69,213,68.4,213,66.9z M210,65.6h1c0.5,0,1,0.1,1,0.8
				c0,0.4-0.3,0.6-0.6,0.7l0.6,1.1h-0.6l-0.6-1.1h-0.2v1.1H210V65.6L210,65.6z M211,66.8c0.2,0,0.4-0.1,0.4-0.4
				c0-0.3-0.2-0.3-0.4-0.3h-0.5v0.7H211z"/>
		</g>
	</g>
</g>
<g id="Layer_3">
	<polyline class="st1" points="123.3,260.5 123.3,121.7 138.9,122 138.9,267.3 123.3,260.5 	"/>
	<polyline class="st1" points="165.5,267.3 165.5,122.1 181.3,122.1 181.3,260.5 165.5,267.3 	"/>
	<path class="st1" d="M207.5,247.7V122.1l16.6-0.2l0,110.5C224.1,232.4,215.4,242.3,207.5,247.7"/>
	<path class="st1" d="M80.2,232.4V121.6l17.1,0.1v126.8C97.3,248.6,81.9,235.3,80.2,232.4"/>
</g>
<g id="Layer_2">
	<path class="st2" d="M224.1,121.9l16.9-0.3c0,0,23.7,72.1-16.9,110.7C223.3,181.2,224,169.4,224.1,121.9z"/>
	<path class="st2" d="M181.3,260.5V122.1h26.2v125.7C207.5,247.7,198.1,254.3,181.3,260.5z"/>
	<polygon class="st2" points="138.9,267.3 138.9,122 165.5,122.1 165.5,267.3 152.2,273.3 	"/>
	<path class="st2" d="M97.3,248.6V121.7h25.9v138.8C123.3,260.5,116.7,259,97.3,248.6z"/>
	<path class="st2" d="M63.6,121.6h16.6v110.7C80.2,232.4,38.3,197.7,63.6,121.6z"/>
</g>
</svg>
