<?xml version="1.0" encoding="utf-8"?>
<!-- Generator: Adobe Illustrator 27.2.0, SVG Export Plug-In . SVG Version: 6.00 Build 0)  -->
<svg version="1.1" id="Layer_1" xmlns="http://www.w3.org/2000/svg" xmlns:xlink="http://www.w3.org/1999/xlink" x="0px" y="0px"
	 viewBox="0 0 260.4 144" style="enable-background:new 0 0 260.4 144;" xml:space="preserve">
<style type="text/css">
	.st0{fill:#2A2B6D;}
	.st1{fill:#FFFFFF;}
	.st2{fill:#E92831;}
</style>
<g>
	<path class="st0" d="M16.3,42.5l12-12c0,0,7.2,3,16.2,1.9c9-1.1,14.4-7.2,14.4-7.2s5.1,6.2,13.5,7.3c8.4,1.1,16.5-1.9,16.5-1.9
		l12,11.9c0,0-5.3,8.7-4,18c-21.9,0.4-39,0.1-76.5,0C19.9,51.3,20.5,50.1,16.3,42.5z"/>
	<g>
		<g>
			<path class="st1" d="M82.3,40.7l-0.5-3.1c-0.2-1-0.6-1.8-0.9-1.8c-0.3,0-0.6,0.8-0.6,1.8v0.8c0,1-0.8,1.8-1.8,1.8h-0.8
				c-0.1,0-0.1,0-0.2,0v2.2c0.1,0,0.1,0,0.2,0h3.1C81.8,42.5,82.5,41.6,82.3,40.7"/>
			<path class="st1" d="M75,38.1h-4.9c0,0-0.1,0-0.1,0h-5.1c-0.1,0-0.1,0-0.2,0v-0.5c0-1-0.2-1.8-0.6-1.8c-0.3,0-0.7,0.8-0.9,1.8
				l-0.5,3.1c-0.2,1,0.5,1.8,1.5,1.8h3c0.3,0,0.6,0,0.9-0.1c-0.1,0.5-0.5,0.9-1.1,0.9h-4.3c-0.7,0-1.2-0.6-1.1-1.3l0.4-2.6
				c0.1-0.7-0.4-1.3-1.1-1.3H39.9c-0.5,0-0.8,0.3-1,0.7l-4,6.1c-0.1,0.1-0.1,0.2,0,0.3l0.8,0.9c0.1,0.1,0.3,0.1,0.4,0l2.7-2.1v13
				c0,0.6,0.5,1.1,1.1,1.1h6c0.6,0,1.1-0.5,1.1-1.1v-4.5c0-0.6,0.5-1.1,1.1-1.1h15c0.6,0,1.1,0.5,1.1,1.1V57c0,0.6,0.5,1.1,1.1,1.1
				h6c0.6,0,1.1-0.5,1.1-1.1v-4.9h-3.2c-1,0-1.8-0.8-1.8-1.8v-3.1c0-0.6,0.3-1.1,0.7-1.5v3.7c0,1,0.8,1.8,1.8,1.8h4.9
				c1,0,1.8-0.8,1.8-1.8v-9.5C76.9,38.9,76.1,38.1,75,38.1"/>
		</g>
		<g>
			<path class="st1" d="M82.7,36.9c0-0.8,0.6-1.2,1.2-1.2s1.2,0.4,1.2,1.2c0,0.8-0.6,1.1-1.2,1.1S82.7,37.7,82.7,36.9z M84.7,36.9
				c0-0.6-0.4-0.9-0.9-0.9S83,36.3,83,36.9c0,0.6,0.4,0.9,0.9,0.9C84.3,37.8,84.7,37.6,84.7,36.9z M83.5,36.3h0.4
				c0.2,0,0.4,0.1,0.4,0.4c0,0.2-0.1,0.3-0.3,0.3l0.3,0.5H84L83.8,37h-0.1v0.5h-0.2V36.3L83.5,36.3z M83.9,36.9
				c0.1,0,0.2-0.1,0.2-0.2c0-0.1-0.1-0.1-0.2-0.1h-0.2v0.3H83.9z"/>
		</g>
	</g>
	<polyline class="st1" points="46,120.5 46,60.6 52.8,60.7 52.8,123.4 46,120.5 	"/>
	<polyline class="st1" points="64.3,123.4 64.3,60.7 71.1,60.7 71.1,120.5 64.3,123.4 	"/>
	<path class="st1" d="M82.4,114.9V60.7l7.2-0.1l0,47.7C89.5,108.3,85.8,112.6,82.4,114.9"/>
	<path class="st1" d="M27.5,108.3V60.5l7.4,0.1v54.7C34.8,115.3,28.2,109.6,27.5,108.3"/>
	<path class="st2" d="M89.5,60.6l7.3-0.1c0,0,10.2,31.1-7.3,47.8C89.2,86.2,89.5,81.2,89.5,60.6z"/>
	<path class="st2" d="M71.1,120.5V60.7h11.3v54.2C82.4,114.9,78.3,117.8,71.1,120.5z"/>
	<polygon class="st2" points="52.8,123.4 52.8,60.7 64.3,60.7 64.3,123.4 58.5,126 	"/>
	<path class="st2" d="M34.8,115.3V60.6H46v59.9C46,120.5,43.2,119.8,34.8,115.3z"/>
	<path class="st2" d="M20.3,60.5h7.2v47.8C27.5,108.3,9.3,93.3,20.3,60.5z"/>
</g>
<g>
	<path d="M114,63.2V42.9h8.3c4.1,0,6.6,2,6.6,5.6c0,2.8-1.8,4.8-4.1,5.5c0.5,0.5,1,1.1,1.4,1.9c0.1,0.3,0.7,1.4,0.8,1.7
		c0.1,0.2,0.2,0.4,0.4,0.7c0.5,0.8,1,1.1,1.9,1.2l0.8-0.1l-0.4,3.6c-0.7,0.2-1.4,0.3-2,0.3c-2.4,0-3.8-1-5.2-4.1
		c-0.1-0.2-0.4-1-0.6-1.4c-0.1-0.4-0.5-1-0.7-1.4c-0.4-0.6-0.8-1.1-1.3-1.1H119v8H114z M119,46.6v5h1.8c2.1,0,3.1-0.9,3.1-2.6
		c0-1.6-0.8-2.4-2.5-2.4H119z"/>
	<path d="M130.5,63.2l6.8-20.2h5.1l6.8,20.2h-5.1l-1.3-3.8h-6.8l-1.2,3.8H130.5z M137.4,55.6h4.3l-1.4-4.3c-0.3-0.8-0.5-2.2-0.6-2.9
		l-0.1-0.5h-0.1c-0.2,1.4-0.4,2.5-0.8,3.4L137.4,55.6z"/>
	<path d="M151.1,63.2V42.9h5.4l5.3,10c0.3,0.5,0.8,1.7,1.5,3.6h0.1c-0.1-0.8-0.2-3.1-0.2-3.9v-9.7h4.1v20.2h-5.2l-5.5-10
		c-0.4-0.7-0.9-1.8-1.5-3.3H155c0.1,2,0.2,3.2,0.2,3.6v9.7H151.1z"/>
	<path d="M170.1,52.9c0-7.1,3.4-10.3,9.2-10.3c5.7,0,8.3,3.1,7.6,7.6l-4.7,0.4c0.5-3-0.5-4.5-3-4.5c-2.6,0-4,2.3-4,6.8
		c0,4.6,1.4,6.9,4.1,6.9c2.2,0,3.8-1.4,3.4-3.9l4.4,0.4c0.2,2.1-0.5,3.8-1.9,5.1c-1.4,1.4-3.5,2-6.1,2
		C173.4,63.6,170.1,60.1,170.1,52.9z"/>
	<path d="M189.8,63.2V42.9h5v7.6h6.1v-7.6h5v20.2h-5v-8.6h-6.1v8.6H189.8z"/>
	<path d="M209.7,63.2V42.9h13.4v3.7h-8.4V51h7v3.7h-7v4.7h8.7v3.7H209.7z"/>
	<path d="M226,63.2V42.9h8.3c4.1,0,6.6,2,6.6,5.6c0,2.8-1.8,4.8-4.1,5.5c0.5,0.5,1,1.1,1.4,1.9c0.1,0.3,0.7,1.4,0.8,1.7
		c0.1,0.2,0.2,0.4,0.4,0.7c0.5,0.8,1,1.1,1.9,1.2l0.8-0.1l-0.4,3.6c-0.7,0.2-1.4,0.3-2,0.3c-2.4,0-3.8-1-5.2-4.1
		c-0.1-0.2-0.4-1-0.6-1.4c-0.2-0.4-0.5-1-0.7-1.4c-0.4-0.6-0.8-1.1-1.3-1.1H231v8H226z M231,46.6v5h1.8c2.1,0,3.1-0.9,3.1-2.6
		c0-1.6-0.8-2.4-2.5-2.4H231z"/>
</g>
<g>
	<path d="M118.5,78.6v-2h4.4v5.7h-1.8v-1.9c-0.4,1.4-1.4,2.1-3.1,2.1c-2.6,0-4.3-2-4.3-5.9c0-3.9,1.7-5.7,4.8-5.7
		c1.6,0,2.7,0.4,3.4,1.2c0.7,0.8,1,1.7,0.8,2.8l-2.5,0.3c0.2-1.5-0.5-2.2-1.6-2.2c-1.4,0-2.2,1.3-2.2,3.8c0,2.8,0.8,3.8,2.2,3.8
		c1.1,0,1.8-0.7,1.9-1.5v-0.3H118.5z"/>
	<path d="M127.2,76.5c0-3.9,1.9-5.6,4.9-5.6c3,0,4.9,1.8,4.9,5.6c0,4-1.6,6-4.9,6C129,82.5,127.2,80.7,127.2,76.5z M134.3,76.5
		c0-2.6-0.9-3.7-2.2-3.7c-1.3,0-2.2,1.1-2.2,3.7c0,2.7,0.7,4,2.2,4C133.4,80.5,134.3,79.4,134.3,76.5z"/>
	<path d="M144,82.3l-3.7-11.2h2.7l2,6.3c0.1,0.5,0.3,1.3,0.3,1.7l0,0.3h0.1c0.1-0.8,0.2-1.5,0.4-2l2-6.3h2.4l-3.7,11.2H144z"/>
	<path d="M154.3,82.3V71.1h7.1v2.1H157v2.4h3.7v2.1H157v2.6h4.6v2.1H154.3z"/>
	<path d="M166.1,82.3V71.1h4.4c2.2,0,3.5,1.1,3.5,3.1c0,1.5-1,2.6-2.2,3c0.3,0.2,0.5,0.6,0.7,1.1c0.1,0.2,0.3,0.7,0.4,0.9
		c0,0.1,0.1,0.2,0.2,0.4c0.3,0.4,0.5,0.6,1,0.6l0.4-0.1l-0.2,2c-0.4,0.1-0.7,0.1-1.1,0.1c-1.3,0-2-0.5-2.7-2.3
		c-0.1-0.1-0.2-0.6-0.3-0.8c-0.1-0.2-0.3-0.6-0.4-0.8c-0.2-0.3-0.4-0.6-0.7-0.6h-0.6v4.4H166.1z M168.8,73.1v2.8h1
		c1.1,0,1.7-0.5,1.7-1.4c0-0.9-0.4-1.3-1.3-1.3H168.8z"/>
	<path d="M179,82.3V71.1h2.8l2.8,5.6c0.1,0.3,0.4,0.9,0.8,2h0.1c0-0.4-0.1-1.7-0.1-2.2v-5.4h2.2v11.2h-2.8l-2.9-5.5
		c-0.2-0.4-0.5-1-0.8-1.8h-0.1c0.1,1.1,0.1,1.8,0.1,2v5.4H179z"/>
	<path d="M192.7,82.3V71.1h3.3l1.7,5l0.5,1.6h0.1c0.1-0.6,0.3-1.1,0.5-1.6l1.7-5h3.1v11.2h-2.5v-5.7l0.2-2.2h-0.1
		c-0.2,1-0.4,1.8-0.5,2.1l-2.1,5.7h-1.2l-2.1-5.7c-0.1-0.3-0.3-1.2-0.4-1.7l-0.1-0.4h-0.1c0.1,1,0.1,1.7,0.1,2.1v5.7H192.7z"/>
	<path d="M208.7,82.3V71.1h7.1v2.1h-4.4v2.4h3.7v2.1h-3.7v2.6h4.6v2.1H208.7z"/>
	<path d="M220.5,82.3V71.1h2.8l2.8,5.6c0.1,0.3,0.4,0.9,0.8,2h0.1c0-0.4-0.1-1.7-0.1-2.2v-5.4h2.2v11.2h-2.8l-2.9-5.5
		c-0.2-0.4-0.5-1-0.8-1.8h-0.1c0.1,1.1,0.1,1.8,0.1,2v5.4H220.5z"/>
	<path d="M233.4,73.1v-2.1h8.6v2.1h-3v9.2h-2.7v-9.2H233.4z"/>
</g>
<g>
	<path d="M130,88.1v3.4h-7.5c-3.7,0-5.4,1.9-5.4,6.3c0,4.4,1.6,6.3,5.4,6.3h7.5v3.4h-7.5c-5.6,0-8.7-3.2-8.7-9.6
		c0-6.5,3.1-9.7,8.7-9.7H130z"/>
	<path class="st2" d="M136,107.4h-3.7l6.8-17.2c0.7-1.8,2-2.5,4.1-2.5c2,0,3.3,0.7,4,2.5l6.5,17.2h-3.7L144,91.9
		c-0.2-0.5-0.5-0.7-0.9-0.7c-0.5,0-0.8,0.2-1,0.7L136,107.4z"/>
	<path d="M166.9,88.1c4.3,0,6.2,2.7,6.2,5.8c0,2.4-1.1,5-4.1,5.8l4.5,7.7h-3.7l-4.4-7.5h-5c-0.3,0-0.5,0.1-0.5,0.5v7h-3.4v-7.6
		c0-2.2,0.9-3.1,3-3.1h7.5c1.9,0,2.7-1.3,2.7-2.7s-0.8-2.5-2.7-2.5h-10.6v-3.4H166.9z"/>
	<path d="M187.1,88.1c4.5,0,6.5,2.1,6.5,5.3c0,2.2-1,3.6-2.8,4.3c1.8,0.7,2.9,2.2,2.9,4.4c0,3.1-1.9,5.3-6.5,5.3h-8.6
		c-1.1,0-1.6-0.5-1.6-1.6V89.7c0-1.1,0.5-1.6,1.6-1.6H187.1z M180.3,96.2h6.9c2,0,3-0.7,3-2.3c0-1.5-0.9-2.5-2.9-2.5h-6.5
		c-0.2,0-0.4,0.1-0.4,0.3V96.2z M180.3,103.7c0,0.2,0.1,0.3,0.4,0.3h6.6c2,0,3-0.9,3-2.5c0-1.6-1-2.5-3-2.5h-7V103.7z"/>
	<path d="M200.9,88.1v19.3h-3.4V88.1H200.9z"/>
	<path d="M214,88.1c5.6,0,8.7,3.1,8.7,9.7c0,6.5-3,9.6-8.7,9.6h-6.8c-1.1,0-1.6-0.5-1.6-1.6V89.7c0-1.1,0.5-1.6,1.6-1.6H214z
		 M208.9,103.7c0,0.3,0.1,0.3,0.4,0.3h4.7c3.7,0,5.3-1.9,5.3-6.3c0-4.4-1.6-6.3-5.3-6.3h-4.7c-0.3,0-0.4,0.1-0.4,0.3V103.7z"/>
	<path d="M242.1,88.1v3.4h-9.7c-2,0-2.9,0.9-2.9,2.4c0,1.6,1,2.3,2.9,2.3h9.5v3.1h-9.6c-1.9,0-2.9,0.8-2.9,2.3
		c0,1.5,0.9,2.4,2.9,2.4h9.8v3.4h-9.8c-4.6,0-6.4-2.3-6.4-5.3c0-2.2,1-3.7,2.8-4.4c-1.8-0.7-2.7-2.2-2.7-4.3c0-3.1,1.9-5.3,6.5-5.3
		H242.1z"/>
</g>
</svg>
